<mxfile host="app.diagrams.net" modified="2021-12-13T08:09:29.225Z" agent="5.0 (Windows NT 10.0; WOW64) AppleWebKit/537.36 (KHTML, like Gecko) Chrome/88.0.4324.104 Safari/537.36" etag="Pi7tZRPICYRQ1OHVaelj" version="15.8.9" type="github">
  <diagram id="W_ZOkDhKmZrthqbT4rpR" name="Page-1">
    <mxGraphModel dx="1422" dy="794" grid="1" gridSize="10" guides="1" tooltips="1" connect="1" arrows="1" fold="1" page="1" pageScale="1" pageWidth="850" pageHeight="1100" math="0" shadow="0">
      <root>
        <mxCell id="0" />
        <mxCell id="1" parent="0" />
        <mxCell id="Xc0I6zHJBe0TDc_1kq9R-1" value="" style="rounded=0;whiteSpace=wrap;html=1;labelPosition=center;verticalLabelPosition=top;align=center;verticalAlign=bottom;fillColor=#dae8fc;strokeColor=#6c8ebf;" parent="1" vertex="1">
          <mxGeometry x="60" y="160" width="1270" height="510" as="geometry" />
        </mxCell>
        <mxCell id="Xc0I6zHJBe0TDc_1kq9R-9" value="" style="group;labelPosition=center;verticalLabelPosition=top;align=center;verticalAlign=bottom;fontFamily=Times New Roman;rounded=0;spacingTop=8;spacing=-16;" parent="1" vertex="1" connectable="0">
          <mxGeometry x="100" y="200" width="400.58" height="385.15" as="geometry" />
        </mxCell>
        <mxCell id="Xc0I6zHJBe0TDc_1kq9R-2" value="&lt;p style=&quot;line-height: 0.9&quot;&gt;&lt;br&gt;&lt;/p&gt;" style="rounded=1;whiteSpace=wrap;html=1;fillColor=#5397FC;strokeColor=#000000;fontFamily=Times New Roman;labelPosition=center;verticalLabelPosition=top;align=center;verticalAlign=bottom;" parent="Xc0I6zHJBe0TDc_1kq9R-9" vertex="1">
          <mxGeometry y="10" width="230" height="340" as="geometry" />
        </mxCell>
        <mxCell id="Xc0I6zHJBe0TDc_1kq9R-7" value="&lt;h3&gt;main&lt;/h3&gt;" style="rounded=1;whiteSpace=wrap;html=1;fontFamily=Times New Roman;fontSize=16;" parent="Xc0I6zHJBe0TDc_1kq9R-9" vertex="1">
          <mxGeometry x="42.36842105263158" y="110" width="145.26315789473682" height="75" as="geometry" />
        </mxCell>
        <mxCell id="Xc0I6zHJBe0TDc_1kq9R-8" value="&lt;h4&gt;sidecar-fluent-bit&lt;/h4&gt;" style="rounded=1;whiteSpace=wrap;html=1;fontFamily=Times New Roman;fontSize=16;" parent="Xc0I6zHJBe0TDc_1kq9R-9" vertex="1">
          <mxGeometry x="40.86842105263158" y="220.00000000000003" width="145.26315789473682" height="75" as="geometry" />
        </mxCell>
        <mxCell id="Xc0I6zHJBe0TDc_1kq9R-19" value="" style="html=1;shadow=0;dashed=0;align=center;verticalAlign=middle;shape=mxgraph.arrows2.arrow;dy=0.67;dx=20;notch=0;rounded=1;fontFamily=Times New Roman;fontSize=16;fillColor=#FFFFFF;fontColor=#333333;strokeColor=default;strokeWidth=2;rotation=31;" parent="Xc0I6zHJBe0TDc_1kq9R-9" vertex="1">
          <mxGeometry x="187.63" y="310" width="180" height="60" as="geometry" />
        </mxCell>
        <mxCell id="Xc0I6zHJBe0TDc_1kq9R-49" value="" style="shape=image;verticalLabelPosition=bottom;labelBackgroundColor=#ffffff;verticalAlign=top;aspect=fixed;imageAspect=0;image=data:image/png,iVBORw0KGgoAAAANSUhEUgAAAOQAAADdCAMAAACc/C7aAAAAt1BMVEUybOX////u7u7x8O4vauXD0Ow3b+U9dunz8u4qaOXo6u4qaOSPqOn18+4mZuXs7e6ouuogY+T3+v5LfOZDd+ZVguba4e7AzutQf+b6+/7l6O7g5O1Lfea5yeu0xeuswOvZ5Prm7fzw9P1pkeuhufLQ3Pl9nuhdiufT2+3g6PvT4PnK1/jJ1eyIpelbh+nAz/d0l+yuw/SApO+dtOoQX+W7y/ZvleyLq/CivPObs/J8nO2ku+qVsOqC2cbPAAARyklEQVR4nNWdaXuqOhCAI0QgRFEU9wW3Cm3Var3aSv3/v+sG3BU0CYGjc7708VTI20kmk0kyAzIpy8d6+NZI+Z0g1bcNPocGxobzNUj1tWlC9r/mEAEiGA9X7ym+OD3I/mINEQSBQIyGi/Qw04IkiAjvEQMhmL+9lF6eDuT7xgEXiAEmmG3SwUwDsr+p3yIGnRbUf/opNCB5yMGPCmAIYoAJgeIlb2kThmz0f/4zwgEPgv77fk944kwUcvDxAx4g+mLA749E1Zkg5OBzqlAg+r3WAN+fCWImBjn4+lbpEHeYyvirn1RbEoIcrMYMiLtOq3irhLSZCGRpMbcwG6IvSF0vEsFMAnIxU8KmRQrBymxUEt8g8ZALK2pWpBEIrJHwJgmGHPwCMwZigGmi7UDsxCkSsvH+WzZiIgZiWKN3kb1WHGTjY9SOq8WDQNPavInDFAXZeNvUhWjxgGmUN5+iMMVANt5+6gbHpPEA8+dTzNgUAvn53caCEQNMXPa+RGAKgPxcW0BgR73AhOrw6wkgP2YwzrxIwVn//LeQpa+KmShiQGm2V/FMUBzI/tcQJUy4E2zMVv0Yg5Mf8n0xRAlYm3CBxmzBH/TihXxfOKLnjOQw+SB7Iwemihhg4tnmIzXI900lMv6WqGBY+eHRJjtk/9sKjaKmIaT7WB47Jitk/9tIdl58yAnxnHUXhQmy9PFtiPTCOTGRuWZbojBADt6+4b9HDAThOUsIkxqy//UNngQR+NoEc/oQJiXkYOXRxMJTFIjgfEWJSQXZX3hqOg4ci0CsrBdUmBSQg8VQQf+aKFyw4owoxuZDyMaoraTu3NALVtqbh5b2AWTplzdOnJb4s/bmgTbvQTb6I8X81xA0YoDN3S3OaMhSb2OJCjEmLoby8xHda6MgS2+b8ssg+mJauUj/IALyI/daiMAPSKtRS5QIyJ/nmxYfC0Q/LJCl4RPPGtGCh+HjMhyyV3lJSFgJ76/hkCvrX7eXT6wVA+TmX7eWVzb0kCXvSX3VR4K80EEZCtlzXnJIEsvjhEZGQiE/yy84gfgCy6H7JqGQi6R2qZKXBS1kKfdcQQAGMXJhgzIMsr9+0SFJBuW6Twn59qpDkgzK9hsl5NeLTiC+4LCN6RDI0uhlhyQZlGHH1kIg+97LDkmiSa9PBfneftkh6Q/KEHcgBPLthYck8exCLM8tZGPxEsGrKDEXtyGtW8jB92tr8vs20hMC+cpD0ndfaSDfX7q3kv56a3luIVevDnkbHbiFTHZIQkQk0fGAvikgE3RcoQHbXrE4rkAjuR0W2H4MOUiot0JsoNm0O6nKcsvtbB1oJqVQ88by3EB+JgKJTOQsJ9WmJMuSJMmSXnXtNTATGRnmTXTgBvJHuHcODROs7ZZeCAD3Qn7Wm52xYhpYdBjCuImj30CKnSX9C5KV3ETLa2eARyEfu9uZohBMkcfXbwblDaSw3gr941OV+dLN58MADxrV8tW/ccU/5CWKE5rXjt015Keg3oqRUl/n7KoWqsIrTq3V2c4riqhjl8b1oLyG3Ip4ETJUZ7qstcI7abg+m5PidKgKmUPxdRz9GjL2dhY0DGu+7E50WsATqO52ll7ZiM2Jh/chS/FcAZ9wTObCAivhgbNQnXSmdSOerwDLpbuQbyr/o8lsX8llD3Mhp5DvNquTmL6C+nEX8lfhezREpuEsq3pBigF4Ai0UqvYc+5w8zYHK711Ij+Oh/lxYH3dlajNDBUrm0Gyuoio8mNC7B1lyOB6pDrcTKa+JAzyC5mW3uOYYQNgp3YH8qHNAVopZtymLVOMBUm66k2KFvUWw/nEHcsFjd6ABZtNijWbeZwAkHkLWzjkK1xlbdXUHknMbHUIEyvOt7QrSJ3lMtbv1YvhAm2jIUozYOUTYmo2XE/mep0qpQ/dv7JQB4vdmr7bVLyD5ttFPl5kwVMqzaU3it7NaXiKTZFmFR28A86w5sdOLhPyyOP52ynh28lD8g5mKNbfp3dZzFeb1zthSThdrgmjCWGFvE7S+IiF/ORQJlUle73pl9bhYgr5nUMm5uk7vGchSQa8uHfLF418L+3+tv2Z+wuOf4N8oyNKUZ52lZGXSy/Razmkrp0u/0DDb047bKjz28QJPLrudmWf9AStlZ9r1+4Oc5dAkMH5KEZDvQx7vwocMRlMhu/Qcslg6/g8yLK9Yc++uR3yfPGuP28bJkJKlaMXbdvRdjyeQPK0avkdA8m2j7yF3DZ7Y27V1ugVEONVhrjtphs+hmtZ0u9u5dba6Cr5g+184PJRLk7D8FgG54jFk8AQZcErVWnFcPlv8EsXMvGWnemWKiJlp1ZbjC9UbiCxFO+7FQo1PkwCtwiFLG67QxwXkboi1XLIoNI8dMPAVnLF94vQJu9NhXTlNP8RaWWP7dinKp0lgnN8xOIPsz3lmSXgNGbRMarYm28qFKQFqe7h1yeLCj9H9zetnsSsyVRAzlW2FLUU5NYnn/VDIHteQDIXcKbRQ/XPAWd5Bn4mwZKdtcHbJlBDC2dYtRKy1OSFhuRcK+cYXqIuA3PdKvTu21DOdkV55WvMH+n3gOnB214s4+gmy8csVco3S5EGIo1bLkdF3kzcDEovkT4b6feeIU5PA/G2EQA44vfMHkNJuatnZ0VNzseHb3Jr+cLHNq0l0ltnwDJIvUPdIk0dO194e04OhYDLUaRYsvJo831Y/QfY4Y+dUkNJuCs1ug8PtVq7m0kYteTUJjF4IJOfJFjpN7hucn1Sgf+h/Qr/o5NUkMBe3kA3ebXQGSNLiPSTLVzg1ib4bt5A8a0nApskjJNNXeEPB5VvI/n9cj+LTJBskZ8P+699A8p5seVpNnp11OUJyn2x5Wk2ezrocITmH5BNrElrXkCXubfSn1SQwS1eQ3CdbnleTJx/9ALnhPlLzvJpEmytI7ttZT6xJ7FxClnjtDqMma/UUNQnVwQXkJ/+TOCDrtVQ0CZTPC8hRjCclDsnbMqiMLiB5ttEPT3peTR621XeQgxn/nt3zahLg2eAM8o3/2OBTa3IfR99Bcm2j7+WJNQnUxRnkD//BoGfWJMA/J8gBV+z8FSDngyPkRwy789TdFc8+jpCrGEOSSZNayprcp5AIIEdxzn8yQXb2kPTnt2JpEuDRATLWFTQ2Te4hO0yQMTRpBNfTfMherJO8yUPGaBwe9vaQn/xLkGfXJLQ+95Bc2+hHeWpNAmO1gxzEShDBqMl2upoEhp/TDsROEMEB2U5Pk0EKCQLZizMkuTTJCBmreVYvgPyMdy2MDbKcsiaDmzAgboIIRk0GkOX0NBmkkACxvHNfkoeM1TzfRweZfqwh+fSahOU+gezx7tnt5ck1Cf7rEUi+ky1HIZqkbzEHpBZTk8D8zYBGzCEJlS79IWV2SFnrxoREXgPwbqOfZNit0lIyQ2qt7jBm86DVAP3YV1+x4nWbdK1mhNT07liNfaHT7AMRCSKwNe5Q9VkmSFnLjnmKH95AroCQBBEQWuNqXixkvjUuC7nPjb6BoAQREFjbwsOma92y/8sUkFphKaqQFSwDYbkxoaH+6ZSQ3UeQum0JK4SAPFASlxwTGrNO8/65UCpIudlxxNV6QE4JZN4r4pJTYODV7hlaGkhNz46BuCah+ru/1OK6vBQhECm5bCFSm1o3OCV5B1KWJjlVYMmO4EIT8I8sx/QOL8WobydR13r2kFYUpCy7S4Edi4jiH2AO4q4/QqvyQDBbtsIpHkBqzaUDRGYGhHB6iLsKTwMKldmfFMZxF1KWbUdwuQc07J+27npl0RUywSzs4O4dSDnvOqKT1uDyx8XpD1Xw8yE2h+6NBYqElCXXM0WnlILq1+VhpV/xyZyIoXV1mQZSLrhbylryDALR4RJl/KOgd8QoL92Li6KhkMSkFusJZFsNOQo6WCfwHoid4rnjHgapVe1hEhVljfXgBjKhegQIzG1di4bU9M5coH9zEnxWp+DsrpZIz+ckEFle59BnryFlqTYW54lfvFY9u7p9BtlYJPCy4IXW2NXCILXqNFY1+TuvBOcZUC8ubv8klmFRzQV9VrPPILXCVk0qq3z0xW3uO2k0bwXLgiQfIG3NXzImV+ppf7QlFNIvupzUe4E567ROmmzWnOSyj8LZvSwu8XbWHwiGXra4gywKXTJey4XRCYHMLBIsv0gM7Sw4MaTOrCTTnxrXVRhuc0kmmsN2Z0uTrbdqPs4lORi+cD57X4zh49SnmXfRy650BZZpci5n3mLusPxTgSCk9ktYlYnV6xZ+CS/9Elr55WUrTgEQWnEztIZP33tNXUIQVmMisgxcgp5PggJnLGXgxMd80hCohBacii6yuXrB2fLG03kEmfl+uez95m0q+0eQGefFKmqgWWTt22jIQf2lPB/Ujq5jHA2ZeROxYZ+WYCusoNZjyMbidUwsVEOq2tBAvpLno9wtun0PMjPgv1bJI5A7xgzDPR0qyMx7nPtNrA0FnUmW75gGroTW1qSEzHymt+yCoKoVcnz5ASM8HUrIzCK1qtQEUtZ5ICGK8nRoITPJBZyv28oLeVsfhBkys06JkhcSXVci4IHsz7gpYVhYLvSz4B8XJKr0BUDy1PpFfvZTiJRy+yoBNsJqu3yWCDT4DFltCyA+yIh6vsyQHJ6PVyzOjPqyk83Wio55St5qTbs18pk9Vs5S3Xo2+aw7VTAH5H1PhwHS93wYKYuy5q1dPZ/Pa4Xq8phHcj5pyhoRqVU7nOjDVrcVfNbMWuyQEIbGdHggiefD+AcuatpfS5MndqegyQV7Nw3BsS7LeX3iFvKyVN3d2YRW1k/t7pLPNJcd0pjf8+bYIDPvjIvLoubvsDoGRmpHlvWtH2bAQ0mWq2MyBJVcU5ZbwfFe0JUkySaDVNn6B0UYIfHsvqfDBslqfAik3FJ9NGh2NM3POwhRVZYnThBVMeZVWasZ/lFU8sPyP//ZpldghaQyOgyQmRXTIUMCqXm7KBFUC0EvROu81BrvP8NbXcrXyWRiE+XuR+d/tsaqyUeeDitkhikhc1GTq4efja7m3+0wbU2uHa7644ora1vDzz6kHbhwhRHSvC66FB+y5DFQ+obn0L/xOO/nUDCrcqF4fAQmQzVr4nVVzh9CvBC0mAyPuaYxrGyQZNlF34Cilp8ecw47eTIWMdTl5vT4BKNYkFsm8lqydBrtNY0BElEaHTbIzBv9VjuBHB8hK3nZHRqqLrfGJ0hiTHUDTQty8/RUmwES3ovpxIDMrFggvXPI6tqwQiGJEeaEvC2KKgayMaKlvNCk42sSKQTysrs2TV+ThRNklxoSohGFN8cFmRl8U+72E8OzPTc82Qo0m7K+PBoeRAzPxETzc8MDJ7SQEIYUYxYFSV2Hgkwh2cPfw59CbMV3CuTOwQeG7Yms/RlwNpHzR/XuJ1QayCG90WGHpE2m5Xs8+1sBmAxGv+0GUWh1vlclnjalPPFeVeIMTPbfMad5ynmS2tPhhMysaBgDj6cT3AvAxJzIEz8ZhtKUpU47cPWQMyGeDlE1GpMlSC44OmS0qzItJIvR4YHMjGiuQPsOutStmKbZtv1O6OMaOU3WO0NkmtibFGQpWNkoXUlublXTNIZZjRLyvxFrm5khGzQnnAlkU5Pczl/HLciyvfN7VTsvF6rZoj1pSbK0DYKduE50qrvdYpassyZUY9JYsxhWPsjMgOKcD7Gu9jbIyC9r+e0hdqtuC0EdAr9u6HTv8JMF5e6zvLS28xRxVxxSAF48ZOb98W6XD0k6YKFQaNrlk+ZRe1kln+luzjp+CM35xP+9bhltJ7WHq3Oshh8LEA1JEVb3ISEyQbmMzPPfhYaptNuKeXFKkfxe20LkI8N8WJ0aKl+P2ycEsjR6tLj0IQF9SBKG/mKYKCPqpUdMSOL5PIhs7SFFCwRsnk4syIeeT1KQjJ5OPMjMx/2YTzKQl8WykofMfN0dRYlAQszq6cSFzGzunfOx8/mucEj6mI4wyMzwrrkXv6tJsXslHrJ0L+Yj/pQ5mnEZ1piQmV47xXM+h0utaUNmvtI753NVGjRFyMeejzDh83REQGYG02RveByFMaYjFDLTHyKYguxv0v8jyMzHTE1BZjGMji//AxiIoDFQMKh/AAAAAElFTkSuQmCC;" parent="Xc0I6zHJBe0TDc_1kq9R-9" vertex="1">
          <mxGeometry x="80" y="30" width="67" height="64.94" as="geometry" />
        </mxCell>
        <mxCell id="Xc0I6zHJBe0TDc_1kq9R-22" value="&lt;h4&gt;log-volume&lt;/h4&gt;" style="rhombus;whiteSpace=wrap;html=1;rounded=1;fontFamily=Times New Roman;fontSize=16;strokeColor=#000000;strokeWidth=1;fillColor=#9AC7BF;" parent="Xc0I6zHJBe0TDc_1kq9R-9" vertex="1">
          <mxGeometry x="257.05" y="17.470000000000056" width="110.58" height="90" as="geometry" />
        </mxCell>
        <mxCell id="Xc0I6zHJBe0TDc_1kq9R-70" value="" style="endArrow=classic;html=1;rounded=0;fontFamily=Times New Roman;fontSize=16;" parent="Xc0I6zHJBe0TDc_1kq9R-9" edge="1">
          <mxGeometry width="50" height="50" relative="1" as="geometry">
            <mxPoint x="207.05" y="150" as="sourcePoint" />
            <mxPoint x="270" y="80" as="targetPoint" />
          </mxGeometry>
        </mxCell>
        <mxCell id="Xc0I6zHJBe0TDc_1kq9R-73" value="" style="endArrow=classic;html=1;rounded=0;fontFamily=Times New Roman;fontSize=16;" parent="Xc0I6zHJBe0TDc_1kq9R-9" edge="1">
          <mxGeometry width="50" height="50" relative="1" as="geometry">
            <mxPoint x="300" y="110" as="sourcePoint" />
            <mxPoint x="200" y="230" as="targetPoint" />
          </mxGeometry>
        </mxCell>
        <mxCell id="Xc0I6zHJBe0TDc_1kq9R-16" value="" style="html=1;shadow=0;dashed=0;align=center;verticalAlign=middle;shape=mxgraph.arrows2.arrow;dy=0.67;dx=20;notch=0;rounded=1;fontFamily=Times New Roman;fontSize=16;fillColor=#FFFFFF;fontColor=#333333;strokeColor=default;strokeWidth=2;" parent="1" vertex="1">
          <mxGeometry x="660" y="562.78" width="130" height="60" as="geometry" />
        </mxCell>
        <mxCell id="Xc0I6zHJBe0TDc_1kq9R-17" value="" style="html=1;shadow=0;dashed=0;align=center;verticalAlign=middle;shape=mxgraph.arrows2.arrow;dy=0.67;dx=20;notch=0;rounded=1;fontFamily=Times New Roman;fontSize=16;fillColor=#FFFFFF;fontColor=#333333;strokeColor=default;strokeWidth=2;" parent="1" vertex="1">
          <mxGeometry x="990" y="562.78" width="130" height="60" as="geometry" />
        </mxCell>
        <mxCell id="Xc0I6zHJBe0TDc_1kq9R-21" value="&lt;h3&gt;logging-sidecar-injector&lt;/h3&gt;" style="ellipse;whiteSpace=wrap;html=1;rounded=1;fontFamily=Times New Roman;fontSize=16;strokeColor=#000000;strokeWidth=1;fillColor=#fff2cc;" parent="1" vertex="1">
          <mxGeometry x="978" y="250" width="330" height="150" as="geometry" />
        </mxCell>
        <mxCell id="Xc0I6zHJBe0TDc_1kq9R-42" value="" style="shape=image;verticalLabelPosition=bottom;labelBackgroundColor=#ffffff;verticalAlign=top;imageAspect=0;image=data:image/png,iVBORw0KGgoAAAANSUhEUgAAAT4AAACfCAMAAABX0UX9AAAAilBMVEX///8jHyAAAAAbFhcfGxz29vYTDA7BwMFdWlvt7OwKAAA1MjMQCQsyLi+6uboNAgaKiIljYGBAPj6pqKkXERPw8PAdGBrl5eXT0tIuKiuwr68nIyTKycmDgYJOS0ylpKSRkJCdnJzd3Nx6eHlRTk9wbm9JRkc8OTrY19dubG2Yl5dYVlZ3dXWHhobpWkuDAAAQXklEQVR4nO1daXuiOhQWCFAVwQWQzaWoqK39/3/vupCTk5CAdKY6vfI+z3wYpBBekpz90Ot16NChQ4cOHTp06NChw/Ng5pntuvbBfPZAfiHMbFeMQstzjHh6tINnD+eXISl0PyTaBST09eGqm4L3IysGoYZBvNh99qB+DRLD0ESEzkc3Ae/CWicV9s7Qjx1/d2DtyMg7wzt1/DUi0RXsneff+tmD++cRadKVe4PVyY8GbH1El+85noXoDIfd8q2Fy5Yu8cLNLJmNYyRJ9PdnD/CfhvkGKksYf9xsDdPds4NF/8kj/KeRD4AoI4Kj8yms6IH9xNH981hYdOXGB3S4P6VGiPH2tLH9AmwpTYMVdxy2RJI+aWS/AfMhoZNPELF7Kj6Mg/xPO/R6GSh4a+GXFTVFOtVPDZuKWEckKaPCw5k9ZWS/Ai4lKRQFbJRS+lbSv+zQQ/T5Ffq0jr5GwOL1EuGXjO59jvhLB8CBLlH/KPzyZanmZQdAAPqJLxhnBBSX/DlD+xUAk9facMc/qDFHRk8a2a/ACmxeH4sIG3wu1uJpY/sFmINvhXhMwbNToM/LlH/buQKRz0DT9KV92QD72YQ5/IyJjKQgWn+Guq47+407f/SI/ykcUKTDcIrJbrL0kf9Zl8hd82PrO8aVYeLr+81LG8Ubj5GlhYZv4Hi5Nan+wSzmQupnBjcvPAP722qIHNgcVrSW+cSphJas9IXdCpE8SH5duhVa8qksKEy8Fw6JZH4ooeRMil6x1w66YqrqX88Y+b8BN5WREpKKq2q+Vy70KtWvg8N+IC5g4sRVje/TklJ3PV+LJBd+EZgfMS8RfG1RzZBccfseCbk1bxRPGPc/g/zL8MD551gTiTIXMFtECx1nuJz6DlIRX92z5S5uZPinRJqbO2YaorecXa2R7OQBpeH+xa24/s0C0eW7WL+AxWpsgClbg6MyC+WVUE8f+J81fYwPw5L2d48Z5r+Kevo2VOwKboQEXIPT186HqadvRGeZxWs0JrP6Xlh36TXRR10z4VT4IaHTcvBU09ecH6KnOn9q6ZtT+ir+54hOS08d0zTnFH9zwGxws91yOoy1t9u20qc3e2h1Ty194BgciPod6IPWWPaHV9h6idEP7I/RyR/4ISHE+LzSZy7p3R4ao66lL1LSZ95Dn0FX/l+nzxzrVHmn9NEA2OChCSZBSZ90B8kpfY7onMqp5HA+lJem9P2AdN5AtOup9PXtd6ucRLZkhzJ1GKPwi01fftU9yM75Mfo+GHvPoy+w34YGlaCWP9q6lccEb0so/LQBW1kdlfsx+uaIvafR917oBva4EEMfiiVtnxBR59doTtkjVdc+4MfoW4MhTjxdL55BX5IOqv5m4vm83HpnRhs2bpnWbEjiShQ/RV9/SUfu71eHUk95KH3BxpIHO8jgyPZAczaEs8iQrVJzwpLwawIeP0XfgQ4qXLKp/0j68gJHKnlYI6rD2EscUAoHHyULbgFzkhg1zPwUfRkVaDradx9IX66p45RnnqzrOs13lnCWFR9XbvI19dnxSno0xk/Rt6Lv3kIHH0dfPqxj78xfen6r72k1xkEMTx9YIT5QZ4/9FH0f5eQPl+jgw+ibj+rZu7AyG6kDwQj1Q/0p+sbli+XE1sPom/hyLjCQYAnVp3ub2hu1py84rL5Ou80XyFMp/hJ95txdb3anxdrut4g4rPhKaOKfVSd9oIiaa0TfLlSl086y/rYK+twZxTu39E13l+qe5fu+5enx4iYW5qvy3AT+m1CiSJGcf1i5dXrfgf79+TxucNG60HXncjNH1ye3KE4voecqldk85lRlb7pZ2Zk9Wyw9GYHO/jyYtS9dyN6kwTUkp+9dd0ro2AsWrGIL3YdY1tvFDM/KswfpLUx1+S8MlFyvsq2hLx8N6M32mJLszcJ7uOHEVwKH5dlqS3SHJYIVJ/TJAreayWLoi+v8mDnV3ZIMTk2ONSl9SUg5Gpzw82wrm62fJkxJIaOSvspA6ow2c0oHHhLEnrkwxB2JOJdoBC2K9FT05fj++ppbfSv+CUJ9QjXA/FPIcyHesDnCK6Mvg3s4OMj0LsujIfr4z+gzIUMiTJFHKdrLtF6nmPempIG+MZp8huhYdFFM/PzQCSPXdJcGS0kwnP3iDmkgoS+CrcN/Q69uo+jrMUj+iD4QkiRFCnYmze45j2jbKxroY0UJ0pp7VKWvWbwD1cy+4ouMOf/zJ/dl51bpm4PGaW0R/xuVDUS00p/2Lfq+4LLYYM80hZTUnHXT7LPZ7X2Z1rFmk1OSvmdGbuJmd0cuKvT1YSvyp2jurdVdUZjJTekLwxApVWdYKvrgsiREG00eq9hDd1PRh5PCZcsvGLEVKnpIW0OkzzzSNWpgMZjhrijGWUqlKfEd4SFL+qLpcrkFP0a8XS6XxUlOXwJLlIt+fGKhYVkkTbXQEQWJij5w9ahqN1jNR6VY+o/pO9LFZIxwaIAwpgx9+27n/fnB/ZjqHIElfVes71Gb2TL3sKvyHc10x18k0byfZ8nR4i1UBX1ztvUReWB3HjedcT8E+saQmcCF1t+Z69ja2kCS6Rb4kTB991gdLI2Emydz5IHTxmwbmp8I1joU9EHB7tnclotOcwJz3v/TADhPH8xrwl0YCTN9x2mS/SPyybekj9n1OpeEw/zUBuGTm1xcXaCgDwI86tQeJjz+uKSco29GB048btzMhqxuJwumz7SjjyUU81UWJoidcC9KwBzNPxV9wI2ybI2552vyB+4Dpi+DsIoQDgC3v19tfYe82q3oCyYQAOMzm1x4fklc22XTT0GfC3NXGd2GWfI36QsOoC4I2iYUFxNLspuwkFor+ibQ0mLLG5YQH3Rkj//FZs73Z98P0FdEbCsStMkEnlQaNIGt5H76nBXIKF/oJhVACxapCy2A5ftP7X3aCNRlzk1wAaWCxFIfEfiH7qePQEKsMRRSJ1jGk7wiBarp75C8cn/JT0heps4PKnOeBpJVAU86nPvpg5uFqfhGwCbV5f68jBLfrPcp0hp/Qu8DVCtdTWrlVJJoStC4Rgv6KKo1Ku+Si2GAzaWyOqB9leY8zupg9IlLt2fS5aIrcj1s3uNyxX308f3NrviCP1Q8WpO/D9m8A9nuaf6EzcvWU8XJAzlIusIRcWhPHyzeShdMKnil3pIL6Faiog85fKz2HpcgS2aJfXeXDSQ6qABIhQ2hkb68NX1kCX1qRAFB6VOqHU30cf6+qmJS6+8bpxd/3+D87y1p5+9bZjSKEab8jDDpXiHPL/zO4nVWYKzogu5A155S7SianPVoemmh6G+3cRiJ9zbbS8J5m8etvM3mit5W2HJNutRUwZn2omOQQOYrEWQvbVYdbhWiY9ggOpjqc7m6zuejzZSxjkM11jFq1gqR1dEDM0ooYqXvW7UdHf3W9M1Qly5+/57Rue7ItbasQW3uoUKXC6wRZEQGdqGOtHmySNuuaQJi+vpsRnDLdFc+aSivzQRNq53LYE154hVNSNVWzHU61Wvoy4d4ihGvWCRZlCWLrejfvb2m/aomztvAH6avl0Aq9xafA+k+oVRzSdobbRf6ggIClNi9E8CsFLt33S6xb559Yr/10LpEf7jEH4y/k2VwWSsLkBLYXLfBwpLqSbAZt/T3HegbJ15fco5GZC9rxhzUNQbX8fE5Lhf6WE6ogQbH3rissv/jex6XM2iEjveDgTdOVsedM62kjr7+sIk/Ynxo6vxJhHszrK47New8REMzYgex2FFFoczYndrSx1yFAxTqiJi/b10Z7hujpY6+uuYO5eNlPXPtV0kmhjPw/G/k990EHezMOER+gPcUagJ/Gc55aUlfrw/eJwttf6BS81vIGcERTZha+pqyS53r/aI3cT/008mHO1tMUVTgzuzSsrH7m2RGII9yOOLW74zLeWhLH5NV4Z6pKcxffNadseTL37BGUk9fb77ElRE8LPBUuHusCJ61xHKquVO41Z25zeX45+CxN9jWHenoFlBaMncLTgttTx/LXUDZNCZaoZa2pjpU9sXrtQ309cyNqg2ON2HrMXhnHgQyQpn1by0z6+nrZzMiZjPihNNu/NH29LXYLUfC1P8GfQH4TS1mnuLuZ8RJp5PF12ayJ0IichN95ykUy+o6HMFn/sH2WkVdR017+yp9LArhMKHNb8Uk9C3LZxGx79OH/CPIPTrm1l1o+JYPa+IuyUshqSoarQVrhlUVrbnjLauK4KrBVBIyOhhStfwC/zP8Pn0sqmsU7Ll2yn0rLOIW9J3ttAlX07asOlLgVqKIbVfTxgYPM4IQZry5oUJpN7Z0r/8WfWyTQZ6K/pvqK1eW3ZSgJiKor6gMlBWVYJXfVVGJ5vSCzQhGiCtXBQxrnrV2WGFdNIc+U1aCzpSbUWdVsDE9UsWQ3N8GG22laneuqX5hkNJnwn6Atr9eXgib9/WRp5GYXXpFi8x6kFUE9VI+67QSF4h+fpD29NVWk8NSq1aTU2u0rprcJ1cYXFQ1GoS3wyH+LkMw9gSfhTHYzq/JvLdroMjL2Lsd83n6yrvxPtKJczt6y12Gke0HggPO0S5/tjfKa/wd+u4pxl8rL52NhleM+Fh/Eg9LcEpjfz3VLeNqK5zZcvTJ9REyrbwGWurr8gIxdhqbx/JuKTfUYFkeHmrcQN03Z2CEl7uR69dNbzKTnpze3Ruplr5cGVeGqsa6Thr9EoI47wN4j02QLbbTUZqmo+nnuvxgMFwDO06k1w0UF+1LrnC5SL6aFMM4TePhcmfT9Ff5NWpQSx9Ech7WxyXIoyjKH9VLZH6IosMftUmpb4PDkgwF/QQEQNdFqIY+cCf5QqZX18Pqhnr6bJbbv0aHUXlG10Htyo48zjqfgj1lfMH8y9Kuf98VpvtVdo/cuFJpg/Jj9c+bShChPgjh9G4Z9f9DfvJR71L/KLH++yjj13Cc6WdhdL1LrwjWQr29lUoq1T74zrlcd/tX7px7GEr6NmtV/8lSHVh64b7NcidHSCpGRD5UFoG9btdwdc/6ihUR6Qr+9Jf9Jk+rLyZE0sAwUeXT/v/R8nsd+Wf3vQ6M1l+LeQ85bxzx9dPrfi2G+1aRVUx2x23Tt4qCceGVscMzd6PTy4rcHp8gXlx9XUF2bPpSVj9bFJeWL3p8TF76I4LsO23489o2M2Q99dwKXthIK6H4SiAriu++ElgH1Tcqoa6bDJ80st8AVpzgCCYu+Ja7L6SqcaC+zkoZ3hoS8F7ai1cPSCeufh0aMjZe1phtBhT1Vr9N3n3avRmQnmKI9B3ijr5GQKVexVWcwS8PbZv/uwBLtJI6AG0grNd1BzQCOukQobwRqoE145VN2iaAt0pITIb2aiR90sh+BaBfCYnxLGOp1HUJyx1yVomCVul8Cj6r1459NwE1GwnjMhncTFh+e1i8dt5KE1APSeIZm1kyG8co+CHpytkBg2uh6HuOhz8/Ue1A0YFHlCoDbZ3SdwcSVYmztFSzg4i1qjbEO3VL9w6M5YFyXdWfqAOPmaQ2JHTWHXt3IiuEmkrixZ3UaIGk0Gnp57U2ZNVNvVYws1MxCi3PMuLp0X7ol1n/JzDzzHZt+9BNvA4dOnTo0KFDhw4dOnR4Cv4DxI0TGFqB8SkAAAAASUVORK5CYII=;imageBorder=default;" parent="1" vertex="1">
          <mxGeometry x="470" y="548.27" width="178" height="89" as="geometry" />
        </mxCell>
        <mxCell id="Xc0I6zHJBe0TDc_1kq9R-48" value="" style="shape=image;verticalLabelPosition=bottom;labelBackgroundColor=#ffffff;verticalAlign=top;imageAspect=0;image=data:image/png,iVBORw0KGgoAAAANSUhEUgAAAZAAAADwCAIAAAChXqV1AAAACXBIWXMAAEnSAABJ0gGoRYr4AAAQpElEQVR42u3de1BUZR/AcUyRBJGgRJJMpDLwkhjopCQpMtrFSnKgC5SSIDY1VuZklk41FV5SM6xEUqebk02Jl/JSjdPF0hcQbymIWmZGKhqp5Q2JfX+27/vM417PLrssxvcz/FHus2dv53z3nLN7zvqZAOAi4cdTAIBgAQDBAkCwAIBgAQDBAkCwAIBgAQDBAkCwAIBgAQDBAkCwAIBgAQDBAkCwAIBgAQDBAkCwAIBgAQDBAkCwAIBgAQDBAkCwAIBgAQDBAkCwAIBgASBYAECwAIBgASBYAECwAIBgASBYAECwAIBgASBYAECwAIBgASBYAECwAIBgASBYAECwAIBgASBYAECwAIBgASBYAECwAIBgASBYAECwAIBgASBYAECwABAsACBYAECwABAsACBYAECwABAsZzb5Of8rCzD9UWRoakcKDU1wX5ap7oShCW4JNjRBGWaE3KjctJEJygMBQLAIFgCCRbAAgkWwABAsggUQLIJFsACCRbAAECyCBRAsgkWwAIJFsAAQLIIFECyCRbAAgkWwABAsggUQLIJFsACCRbAAECyCBRAsgkWwAIJFsAAQLIIFECyCRbAAgkWwABAsggUQLIJFsACCRbAAECyCBRAsgkWwAIJFsAAQLIIFECyCBYBgESwABItgAQSLYAEgWAQLIFgEi2ABBItgASBYBAsgWASLYAEEi2ABIFgECyBYBItgWXv88cf9/u+5557z1d14/vnn1d149NFHWYwJFsH61wZr586ds2fPTk9P79WrV1hYWOvWrf39/S+//PIuXboMGjToySef/PDDD48dO9YcgvXnn3/6ad5///2G3BN5DgkKwSJYnnH69OmCgoIePXr4GSAVGzZs2Nq1a+vr610K1vbt22+66aagoKDExMTy8nKCBYJFsFz2ySefdO7c2c91b775pkvBio2NVQMkjgQLBItgueDMmTNZWVkWGerdu3deXl5xcXFVVVVtbW11dbVsJ0rUcnJyOnbsqI/88ccfjQfLYvkXf/31F8ECwSJYhpw6deqWW27Rl8lrr7129erVDq4i/Vq4cKEMk8FxcXGu7sOKiopSA6655hrWsECwCJZR9913n75ADh8+XFa4DK6XTZo0adq0aa4Gq6SkJD4+PjAwsG/fvps3byZYIFgEy5CXX35ZXxrvv//+urq6Bk6TTwkJFsFqZsGqP3d+mkb+GqCioqJly5ZqWYqJiZHNw4bPLgSLYBGsZhasmiWGprbJryGva3p6ulqQLrnkkk2bNnlkdiFYBItgNbNgydMiT443g7V169YWLVqoBemee+7x1OxCsAgWwSJYHg5Wbm6uvhx+9913jRYs+Uc1QAYbmeYvv/xSUFCQlpYWGxvbvn37Vq1aBQcHd+rUKSUlZeLEievXr7f48qpLwSoqKpIVTPPIqKiow4cP+zxYJ0+e/Oijj7Kysnr06CGPt3Xr1hEREXFxcfJAPv3009raWiezzx9/6PdZ/tfx+DVr1qjBvXr1sjfs7NmzK1euzM7O7tOnj9yrSy+9VF6IkJCQzp07Dx48WF7K5cuXG/mSijylixcvzszM7Natmzwh8ugiIyNlmvJSbty4kWARLKtdZPX14eHhXvpugWeDVV5enpGRoe9rs6lnz54HDhxwI1jFxcVt2rQxD5Nlb8eOHb5dwzp9+vT06dMlBw4erARi3rx5Dj4e8UawVqxY0aVLF6ffIm7btu1vv/1m74YktbNmzbriiiscTOH222/fvXs3wSJYF1RAn0XknbxpBmv+/PnyNm7k2/ahoaHy/u9qsPbt29ehQwfzGFlZ+OKLL3y7SSj358YbbzR4gMHAgQMPHTrUOMF6++239R0IDkjU7N3K77//LvfZ4KtZVlZGsAjW/8hSp88fixYtaoLBmjRpkn4nZZvoxRdfLC0tlfle2iRv45999tno0aNlg0Iulf9wdZNQFmP9IKHCwkLf7sP66aef9BUrKfVjjz22bt26I0eOyIrJwYMH5fHKW4u/v7++qmWzWZ4N1v79+9VKqDmUCxcurKyslMmaD4HYvHlzfn7+gAED5FK5z/aeRv0YVXl7kE3Lr7/+uqam5syZM3v37p07d+5VV12lBoSFhdnLMcFqdsGSJd9LO7A8FSx5S9fvYW5u7smTJ22OlC3B4cOHf/nlly4FS5a05ORkNWDChAm+3ekut9K9e3c17IYbbpC1LZsjKyoqrrvuOjWyb9++shXp1WBNnTpVXWr9xmCx5i53z+ZF+kfSV155pWyJW4+RePXr108NGzVqFMEiWOeNHTtWn6E9e8qEhgdL1p4CAwPVmPHjx3v8U8KRI0eqS1NTU//++2/fBkt/TmSrynFiZG1Llnk1XoLi1WClpaWpS7du3erGa/H555+rKcjK2pYtW+yNlLeftm3bmkfKRmhVVRXBIlimBx98UJ+h3V739lKwxowZowbEx8efO3fOs8HSVzATEhLsrbvZDFYD2QyWPP9BQUFqjGwoOX10snmoxoeEhMhmsveCNWTIEHWpbLu58Vr0799fTWHy5MmOB8uKlRosK9oEi2CZMjIy9BnaYnb3bbAkH/qO9pUrV7p3N+wF64MPPlD/fvXVV8vaiuPpNEKw5syZowYkJiYafID67vl58+Z5L1j625u03tUXorKyUl29ZcuWFt8asVZYWKgfK0awCJYpOztbn6Hde9v0UrBWrFihLg0PD7f+glVDgvXNN9+Yd9KL4ODg7du3O51OIwQrJSVFDZg9e7bBBzht2jR1rdtuu817wVqwYIG6VDbTnnnmmZqaGuMvxNy5c9XVk5KSnI5fvXq1voOfYBEsk8xz+gxdWlradII1fvx4dem9997r9t2wDtauXbtCQ0PVW73jU+g05j4sfY3S+AFSxcXF6lqBgYHeC5as85pPJaTfXFZW1tKlS48fP+70fspakku7I1etWqXGd+vWjWARLFNBQYE+/y1btqzpBEs/3Y0s6p4KVnV1dXR0tL2zpPowWBZxcbrFpO9616944sQJLwVL7NixIzIy0uZpsm+99VbZiDt69Ki9iQ8aNMjtFdLY2FiCRbBMGzZs0GeLp59+uukES/+2QX5+vqeClZOTo/63X79+xqfj7WDt3r1bn77xTxhqa2v1K+7Zs8d7wTL3MTMzUx3DZEFWErOzs23WtmfPnm4Ha8CAAQSLYJ0/956+GWJ8R28jB+uNN97wVLCqqqoiIiLUv8yfP/9iD9bZs2ft7Yj00rGEpn++3TplyhT9K2MWe+i+//57i6sY/E0Tm1JTUwkWwTrv7rvv1r92/OuvvzaRYOm7PF566SUP7sOSZUntcZeHvG7duqYQrGPHjjX9TUJr0tnp06f36dPHIjHt2rWTqOkjk5KSGvLsESyCdd7y5cv1+czpt2N8stP94Ycf9mCwTBd+ZB4aGlpZWdkUdrrrB76UlJQYnOzGjRvVtYKCgry3092xbdu2DRs2zOK8tfqAESNGqIukcQSLYLmjvr4+Li5OzUnt27d3Ols3TrD0rzXExMR4NlimC7/l37VrV6ef0DdCsIYOHaoGzJo1y+Bk8/Ly1LXuuOMOB2ttXg2W2bhx4/T9WfqZJPT7mZaWRrAIlpuKior02fqhhx5qCsGy+OKog8M43AtWbW3tzTffrC5KTk52vNuoEYKVn5+vBvTv39/gZHv37m1vl5zF/ninRzK88sorDQyWJFLfH68fUrN+/Xr9kGaDP3FCsAiWjZWsO++80+OnbfDsoTlunwrVwaE5hw8f1k8MIDfn22BVV1cHBwe7fWiObNtar0OpI/KcHgC4d+9efZvUvWBZ3KJ+Six5P9B/oPett94iWATLTfLGqB/636JFi9dff93gdWVjSnKj7+v1VLDk/Vk/+Nn4XTIYLFFaWqqvx7322ms+DJZ44YUX1Jjo6Gh5XRxMUIKr/5btzJkzrcfopz1w8O15uaGEhAT9AVoHy8GR4Xr11BQCAgIsriKvoH7ko5FdhwTrogpWo/wIhdnOnTv1z/vNx3nYO0mImstfffVV88mbrL954JHTy1h8tXXChAnWJ1FR64nvvPOO9RdBnZ4P67333tOPcVu1apUPgyUbwlIK/We39+/fb3OkLO0xMTH6JqTFmQvNpkyZosZI3Wx++Cj/aP6Y77LLLnMQrEceeeSpp56S1UB7D1DugMwzDg4AlNdOf3Ryf7799lsHz9iuXbtGjBjx8ccfE6yLJFiN8jNfyoEDByxOdNmqVauUlJT8/PyysjLzT9UfPXq0vLz83XffzcjI0Ldfunfv7o1gWUxHdOjQQa741VdfHTx4UJYQiWZJSUleXp75qBFZwl0NlnjiiSfUGHlQP/zwg6+CZfrnPHnq9Kfmw1/k7snmoTzz8vwfOnRo7dq1OTk56psZ5hPR2OuIvGr6yKioKLnne/bskafu+PHjxcXFkydPDgsLk4v8/f2XLl1qL1jyPJvPJCHrTbJ5vmDBApklZIaR6UiGZIKLFi3Svxoqd9v6NNPmVTB1XJTZ0KFD5bry1ig3IZuN8jC3bdsmG4xDhgwxn930rrvuIlgXSbAa3alTp8aNG6fP4kbITCxLo8XxyR48RfKMGTOcns1dsTjjnZFg1dXVDR48WF+qrZf/xjxF8s8//xwfH2/w8SYnJzv+0pasdTqdiNRqyZIlEkR1BmSLYOkfCDglW9nSPnv3R9p0/fXXG5+arMI7/bkNgtVMg6UWmKysLCPZateunVTA5lkxPfsjFLIuoH/qb+8U4DNnzrT4sM/gj1DIG7v+2wqJiYkWH2M18o9QyK1PnTrV8c80dOrUSWJk5De6ZYVF3lTsTUc2LTds2GAeqVZ/LIIl22767jAHZJjTo+hl5e7ZZ58NCQlxGj6ZDx38mAXBIlgXbAUsXrw4NzdXZsGIiAiZe2Q1R5a0rl27JiUlTZw4cc2aNQ5OeueNn/mSjQXZ+pOt1OjoaNl2k/UCWaRl0Ro9erSsINj8pNz4z3zJxPXz52VmZvowWOpG5SUYOXKk+Yew5PGGh4fL4x07duyyZcts7rSyR7YN5QlPSEiQJMnrKM9ebGysbNfLqpCePLVfzOanhLJyNGfOnAceeEA2veWeSARljUxmjI4dOw4cONDVn+cyz2BjxoyRqUVGRrZp00YmKJvDsmk5atSowsLCBp6gjWA1r2ABFzWCRbAAgkWwABAsggUQLIJFsACCRbAAECyCBRAsgkWwAIJFsAAQLIIFECyCRbAAgkWwABAsggUQLIJFsACCRbAAECyCBRAsgkWwAIJFsAAQLIIFECyCRbAAgkWwABAsggUQLIJFsACCRbAAECyCBRAsgkWwAIJFsAAQLIIFECyCBaBJBavcz/lfRYDpBMEC4PNgpfo5/0sPMP2HYAHwebD8/Jz/BQSYiggWAIJFsACCRbAIFkCwCBYAgkWwAIJFsAgWQLAIFgCCRbAAgkWwCBZAsAgWAIJFsACCRbAIFkCwCBYAgkWwAIIFAAQLAAgWAIIFAAQLAAgWAIIFAAQLAAgWAIIFAAQLAAgWAIIFAAQLAMECAIIFAAQLAMECAIIFAAQLAMECAIIFAAQLAMECAIIFAAQLAMECAIIFAAQLAMECAIIFAAQLAMECAIIFAAQLAMECAIIFAAQLAMECAIIFAAQLAMECAIIFgGABAMECAIIFgGABAMECAIIFgGABAMECAIIFgGABAMECAIIF4N/qv2YWC03c3dmuAAAAAElFTkSuQmCC;imageBorder=default;" parent="1" vertex="1">
          <mxGeometry x="800" y="542.42" width="178" height="100.72" as="geometry" />
        </mxCell>
        <mxCell id="Xc0I6zHJBe0TDc_1kq9R-61" value="" style="endArrow=classic;html=1;rounded=0;fontFamily=Times New Roman;fontSize=16;exitX=-0.003;exitY=0.573;exitDx=0;exitDy=0;exitPerimeter=0;" parent="1" source="Xc0I6zHJBe0TDc_1kq9R-21" edge="1">
          <mxGeometry width="50" height="50" relative="1" as="geometry">
            <mxPoint x="790" y="370" as="sourcePoint" />
            <mxPoint x="310" y="460" as="targetPoint" />
          </mxGeometry>
        </mxCell>
        <mxCell id="Xc0I6zHJBe0TDc_1kq9R-63" value="&lt;h4&gt;sidecar-fluent-bit&lt;/h4&gt;" style="rounded=1;whiteSpace=wrap;html=1;fontFamily=Times New Roman;fontSize=16;rotation=-10;" parent="1" vertex="1">
          <mxGeometry x="524.7384210526316" y="320" width="145.26315789473682" height="75" as="geometry" />
        </mxCell>
        <mxCell id="Xc0I6zHJBe0TDc_1kq9R-72" value="" style="shape=image;verticalLabelPosition=bottom;labelBackgroundColor=#ffffff;verticalAlign=top;aspect=fixed;imageAspect=0;image=data:image/png,iVBORw0KGgoAAAANSUhEUgAAAWoAAACLCAMAAAB/aSNCAAAA/1BMVEX////5+fnwNJBiYmIxND8Au67y8vMAAADwTZkAwLTwP5QbIC5RUVHv7+/q6upaWlrd3d2CgoL/9fqLi4sGBgaWlpYwMDAYGBi9vb1xcXHKysoQEBCcnJzS0tKlpaWzs7NKSkp4eHgfMjiBgYE2Njbt+vlPzsUgICAfIzJoaGh82dIsx7xDQ0M+Pj6J3NbxVZ0lMjq4uLjb9PLsYqGj4945PEbN7+7zeK/85O/2o8fA7eobGxu26uX4vtf6zeBERlCio6doanGeUnn1lsD1kLzjVZd6VWzIUIreY5xPUlutUX++VYdfT2BzRmFaXWSKUnEMEiT4tdJQz8VhQVcAHCSUmt1MAAAJEklEQVR42u2c/Z+aRh7Hh9LFrojgsiogCkZbtdntZrPd9K7pXXq55qEPSdu7/v9/S1GBYZ5kkIG8dv2+f4osDvh2mPnwZQwCAAAAAAAAAAAAAAAAAODBc/FZI/wTAYzq7hfq6f4XAa2o7v6EgHZU32kIaEX1zQUC2lH9DwS0orr7bwS0orr7LwS0oroLgbol1RCo21Ld/Q4B7ai+Q0BLqiFQt6S6C4G6JdUQqNtSDYG6LdUQqNtSDTGvLdVgujXVdxDzWlJ9AzGvJdUQqNtS/RkE6pZUd/9EQCuqa9VNF/YOv+r7tHj3vt4MPSAuup9yIULc2TEq2a2/0PX5tKi6s2eAHhAX3U8ZqHtSqp39Xm5RdbbpAXHR/ZQLEeRU26nY/imr7l6gFlR3UmYnrLp2oJZSrYFqBXXTar06OlnVCuqmcqrnqVjrVFWrWIggp1pb7vbyTjWBKKmb5qpLuJ37wz46VdVKFiLkqmU4VdVqVvaC6tZW9oLq1hYigOrmA/Vh1f0UY//SSF8KVTvhwE/qg0NHfCTLmbnJPrY+CAOL8+fdAbTs+JE739j2Au/KYjjRcG4nLIZevzHVCgL1QdWbDln0WKQv+aq1cNnJWIb8etVweyBMb0b/Wkcv3I56dmHXzZRbapzpk2KDV0OrEdUKf8DFVb3IPoCDylQnZoMVYXHJqNFm1x2Glx5PtZ78a7qkdp2z0ZP44rJTKVf97v37u7ubtgP1AdUubRoNhKpnKGI+c0Rd6B0+IUf1SMPtYWLqpFf8Bkufbxh/Pdlx/9vb31//+v7NTasLETiqh9h0uWrP43zmW7oEy2fGqu70AwmJrqDBeZlq8/OUZ8+eJcpffXj97s1N44FaqDrMTjxAEqr5n5qcHaf4D5OJaDc9bW/CbTAgB2pRg56k6tx40sP///rdXVN108OqZ/i0y1RjrgeuO/ALkxR5kKv9VBhO+5bVnw64vVAnp82567obYYPz/VGHwbZBZ5jrjiuoxh38yf3bX+6aX4hAq47wgCutOnbSbaFgCLlNel/Yx53yKtvN4Kv2032NgeA6cbb9H2/SNvluFVXj3v3bLzdNBWq+ag+Po9Kq3YKCvJuTEcQPyNeccUEvjhbsNTakHvRTU+8y262qasyTJx9+vWkkUHNVBzgdSKte7DdQDUwPHjVkzej8DhynG/VDzeHj+seoxn371es3DQRqnuop7qjyqjUmbZTfsPfZpQ16fmyuw5Em9Zzo+jjVuGvf//5OeaDOVeNTdHBHLVfNTm3pt1XlCZrPUW3Qe+LN5c/0x0erxl377fttzFP/f0+kqu1dV8MCylWL8lWWBg6f6st0WGBV27RDOdVp/LmsrXon+00TP5Xr5Xa1UT4syqtmlS6ywfpI1SHi365YraneynaQenr5oOnn2bSK6kvRjBeJqq+GkWThsVB1QO0/LFOtaUmDlq5S9dpDDdDL5qIwn1gqqb6id/XItIjf4HiDjd67Wo5ebscYoeq+tGoncDe6HS9Hq22DClWbP6ImSFWH0zxqVVOtMwJ4QUKbxS87mEOqLTnVXq9Yc1Kq2mzocUeqenGZneyqmmpflOPmhX13461K1bs7m4ZUr/+DmqHHVtEqqZ6LVPvF/FdBtVGu2lp2mlO9/khM9F8iZXBq7JES1XO+6cl4PLqObaHqy3LV1iXV4GoZ22NVql8Rl8+L82+RKnq8EqiKAWTBilm620qcYSTdpo7qa6x54SUNWtsGe4pUr4lp+fn5+dnXSBEF1aGdKamg2hZNi0P6MaWNk3Yt1WH+zRUjWaxGtTklRo/zhLOnigYRrNrDT6Z8adXsDXhEhj2nUJpTotoYZ493EVKu2iSLv0/P97xAKshUT5xiXS6Sv1tEAjXpSbv5jZEi1V52wpp61VSg/uo8Rc2AnapeGdQD3FLVooE9Jrfr3FKJdrzqAb8yvVKgmgrUX5/lqs++QfXpkUPuVV6zlFU9Ezwez1YLc+Py9HjVPvcGXlMQ9qhA/S02rWZypFT389poqWr+HBoSEnENi7pK6quekjOEAtU/E93r+51p7PorhNSqRrd5b5V9NDA98FMOrNoiu3591WSvntRXfU8c+UViWrFrWjWa54OwpOqRwe6IzcS8sbpXQ/WcN1YP6t8trh065tGu/6dadb50aKVJPsa97uPhg4mLfl4BLD7frqE65CSQYf0bczMgTO9inuJ+zajGSXgjuzjhMl3rGPTYG86Ike8tOzVU49OLsy1Tu34NxIzoQK3eNasa25mVqcYs4/iq8NLFn26CN3qBF6XXf427RXycxbZBd6yg3EQH6uJArSyHYNWYTYXlkdz1eCMykrCsnONVBx0e01UN1esBsds3tGk1+Zqn2ljl6bpMtc1bqji2yHsalj66OlY1nhjJxXr+8arXH5lALXT9g1rVuO7pl6me5S4wtkF+vkvmq0iuFvd41eiaYxp5x6t+xQTqA66f11Xd43++TlSylN3ZfjEjaikvhUX1a9/YvqnGo4F9D8bEfXzzdYTqe6puWsLRdT57Mk6Y6PQ3kGze0nGEvXr7tvRiuF3mgzApmg0dk4Gzf//1JHn/pjBB7I+4olWHl7vt5D2Q08MTYfYDDn2yffsRqqlAXUbtW5nDaMYe8cqwIHIHoeeI/u54w8ViGAXK1lf0g3CxcGdMg5VVm4Ew5jURQ04Fjuo/IkHdtJmp8WQwTLm6aWPD9enAqF7PeYH6Uw/XjwHDPFih/kHS9PmZkqcyjxrDPLwQYQcMISqgVK/7nJgHQ4gSSNUmFaircPY9AqRVmx4VqCvxVP2vCh4Vhlm5btpIje8EMMyyQA0zoyIMU7wQoTJwfy6lev0zHaircwbdWkb1PRuooVsrJVftkBXqI3mOgBLV6ym9EAG6tWr2qs1bQd0UQog6DLN+oIZsLa3aZBYi1AABQtUqAjU8j5FSvaZW9p7X4ykCRKrvLSUxT8GqkEeO8QdVN60N5D0BFl03rQ8C+KgK1Dlnan5n98hJ6qYKgBGEi8JADRnkIAoDNdSc5HmhyjTcnHNQGqhhmcIBFAdqKO9JoakI1LAiRICquikHGKybDtQwWMsEasXAYA0AAAAAAAAAAAAAAAAAwIPlb3evrj+AWqPyAAAAAElFTkSuQmCC;imageBorder=default;" parent="1" vertex="1">
          <mxGeometry x="1130" y="558.5999999999999" width="178" height="68.35" as="geometry" />
        </mxCell>
        <mxCell id="Xc0I6zHJBe0TDc_1kq9R-75" value="&lt;h4&gt;log&lt;/h4&gt;" style="ellipse;shape=cloud;whiteSpace=wrap;html=1;rounded=1;fontFamily=Times New Roman;fontSize=16;strokeColor=#000000;strokeWidth=1;fillColor=#FFFFCC;" parent="1" vertex="1">
          <mxGeometry x="360" y="450" width="120" height="80" as="geometry" />
        </mxCell>
      </root>
    </mxGraphModel>
  </diagram>
</mxfile>
